<svg xmlns="http://www.w3.org/2000/svg" viewBox="0 0 280 180" fill="none">
  <rect width="280" height="180" rx="16" fill="#F3E5F5"/>
  <rect x="15" y="10" width="250" height="160" rx="12" fill="#fff" stroke="#AB47BC" stroke-width="1.5"/>
  <rect x="15" y="10" width="250" height="28" rx="12" fill="#AB47BC" fill-opacity="0.06"/>
  <rect x="25" y="17" width="80" height="8" rx="3" fill="#AB47BC" fill-opacity="0.2"/>
  <rect x="25" y="48" width="230" height="40" rx="8" fill="#AB47BC" fill-opacity="0.04" stroke="#AB47BC" stroke-width="1"/>
  <rect x="35" y="56" width="100" height="7" rx="3" fill="#AB47BC" fill-opacity="0.15"/>
  <rect x="35" y="68" width="150" height="5" rx="2" fill="#AB47BC" fill-opacity="0.08"/>
  <circle cx="235" cy="68" r="12" fill="#AB47BC" fill-opacity="0.1"/>
  <path d="M230 68c0-3 2-5 5-5s5 2 5 5-2 5-5 5" stroke="#AB47BC" stroke-width="1.5" fill="none"/>
  <circle cx="235" cy="68" r="2" fill="#AB47BC" fill-opacity="0.4"/>
  <path d="M238 68l3-2v4z" fill="#AB47BC" fill-opacity="0.3"/>
  <rect x="25" y="98" width="230" height="30" rx="8" fill="#AB47BC" fill-opacity="0.04" stroke="#AB47BC" stroke-width="1"/>
  <rect x="35" y="105" width="90" height="6" rx="3" fill="#AB47BC" fill-opacity="0.12"/>
  <rect x="35" y="115" width="120" height="4" rx="2" fill="#AB47BC" fill-opacity="0.06"/>
  <rect x="200" y="103" width="50" height="16" rx="8" fill="#AB47BC" fill-opacity="0.1"/>
  <text x="225" y="114" text-anchor="middle" fill="#AB47BC" font-size="7" font-weight="700" font-family="sans-serif">Audio</text>
  <rect x="25" y="140" width="230" height="22" rx="6" fill="#AB47BC" fill-opacity="0.03"/>
  <rect x="35" y="147" width="60" height="5" rx="2" fill="#AB47BC" fill-opacity="0.1"/>
  <rect x="105" y="147" width="40" height="5" rx="2" fill="#AB47BC" fill-opacity="0.07"/>
  <rect x="155" y="147" width="50" height="5" rx="2" fill="#AB47BC" fill-opacity="0.07"/>
</svg>