<svg xmlns="http://www.w3.org/2000/svg" viewBox="0 0 280 180" fill="none">
  <rect width="280" height="180" rx="16" fill="#F3E5F5"/>
  <rect x="90" y="20" width="100" height="140" rx="12" fill="#fff" stroke="#AB47BC" stroke-width="1.5"/>
  <rect x="90" y="20" width="100" height="25" rx="12" fill="#AB47BC" fill-opacity="0.06"/>
  <rect x="100" y="28" width="50" height="6" rx="3" fill="#AB47BC" fill-opacity="0.15"/>
  <circle cx="140" cy="80" r="22" fill="#AB47BC" fill-opacity="0.08" stroke="#AB47BC" stroke-width="1.5"/>
  <path d="M133 72v16" stroke="#AB47BC" stroke-width="2.5" stroke-linecap="round"/>
  <path d="M133 72c0 0 4-3 7 0s7 0 7 0" stroke="#AB47BC" stroke-width="2" fill="none" stroke-linecap="round"/>
  <path d="M133 88c0 0 4 3 7 0s7 0 7 0" stroke="#AB47BC" stroke-width="2" fill="none" stroke-linecap="round"/>
  <circle cx="140" cy="80" r="30" fill="none" stroke="#AB47BC" stroke-width="1" stroke-dasharray="3 3" opacity="0.2"/>
  <rect x="105" y="115" width="70" height="6" rx="3" fill="#AB47BC" fill-opacity="0.1"/>
  <rect x="115" y="125" width="50" height="4" rx="2" fill="#AB47BC" fill-opacity="0.06"/>
  <rect x="110" y="140" width="60" height="12" rx="6" fill="#AB47BC" fill-opacity="0.08"/>
  <text x="140" y="149" text-anchor="middle" fill="#AB47BC" font-size="6" font-weight="700" font-family="sans-serif">Ouvir audio</text>
  <rect x="50" y="60" width="30" height="40" rx="6" fill="#AB47BC" fill-opacity="0.04" stroke="#AB47BC" stroke-width="1"/>
  <rect x="57" y="67" width="16" height="4" rx="2" fill="#AB47BC" fill-opacity="0.1"/>
  <rect x="57" y="75" width="12" height="3" rx="1.5" fill="#AB47BC" fill-opacity="0.06"/>
  <rect x="57" y="82" width="14" height="3" rx="1.5" fill="#AB47BC" fill-opacity="0.06"/>
  <rect x="57" y="89" width="10" height="3" rx="1.5" fill="#AB47BC" fill-opacity="0.06"/>
  <rect x="200" y="60" width="30" height="40" rx="6" fill="#AB47BC" fill-opacity="0.04" stroke="#AB47BC" stroke-width="1"/>
  <rect x="207" y="67" width="16" height="4" rx="2" fill="#AB47BC" fill-opacity="0.1"/>
  <rect x="207" y="75" width="12" height="3" rx="1.5" fill="#AB47BC" fill-opacity="0.06"/>
  <rect x="207" y="82" width="14" height="3" rx="1.5" fill="#AB47BC" fill-opacity="0.06"/>
  <rect x="207" y="89" width="10" height="3" rx="1.5" fill="#AB47BC" fill-opacity="0.06"/>
</svg>