<svg xmlns="http://www.w3.org/2000/svg" viewBox="0 0 280 180" fill="none">
  <rect width="280" height="180" rx="16" fill="#E3F2FD"/>
  <rect x="80" y="15" width="120" height="150" rx="12" fill="#fff" stroke="#0288D1" stroke-width="1.5"/>
  <rect x="80" y="15" width="120" height="25" rx="12" fill="#0288D1" fill-opacity="0.06"/>
  <circle cx="95" cy="27" r="6" fill="#0288D1" fill-opacity="0.2"/>
  <rect x="108" y="23" width="50" height="5" rx="2" fill="#0288D1" fill-opacity="0.15"/>
  <rect x="108" y="31" width="35" height="4" rx="2" fill="#0288D1" fill-opacity="0.08"/>
  <rect x="90" y="50" width="80" height="18" rx="9" fill="#E3F2FD"/>
  <rect x="100" y="56" width="55" height="4" rx="2" fill="#0288D1" fill-opacity="0.2"/>
  <rect x="110" y="76" width="80" height="18" rx="9" fill="#0288D1" fill-opacity="0.08"/>
  <rect x="120" y="82" width="55" height="4" rx="2" fill="#0288D1" fill-opacity="0.15"/>
  <rect x="90" y="102" width="90" height="18" rx="9" fill="#E3F2FD"/>
  <rect x="100" y="108" width="65" height="4" rx="2" fill="#0288D1" fill-opacity="0.2"/>
  <rect x="130" y="128" width="60" height="18" rx="9" fill="#43A047" fill-opacity="0.1"/>
  <rect x="140" y="134" width="40" height="4" rx="2" fill="#43A047" fill-opacity="0.2"/>
  <rect x="55" y="65" width="20" height="20" rx="10" fill="#0288D1" fill-opacity="0.15"/>
  <text x="65" y="78" text-anchor="middle" fill="#0288D1" font-size="8" font-family="sans-serif">👤</text>
  <rect x="205" y="85" width="20" height="20" rx="10" fill="#0288D1" fill-opacity="0.25"/>
  <text x="215" y="98" text-anchor="middle" fill="#0288D1" font-size="8" font-family="sans-serif">📚</text>
</svg>