<svg xmlns="http://www.w3.org/2000/svg" viewBox="0 0 280 180" fill="none">
  <rect width="280" height="180" rx="16" fill="#E3F2FD"/>
  <rect x="15" y="10" width="250" height="160" rx="12" fill="#fff" stroke="#0288D1" stroke-width="1.5"/>
  <rect x="15" y="10" width="250" height="28" rx="12" fill="#0288D1" fill-opacity="0.06"/>
  <rect x="25" y="17" width="80" height="8" rx="3" fill="#0288D1" fill-opacity="0.2"/>
  <rect x="25" y="48" width="130" height="70" rx="8" fill="#0288D1" fill-opacity="0.03" stroke="#0288D1" stroke-width="1"/>
  <text x="35" y="62" fill="#0288D1" fill-opacity="0.4" font-size="7" font-weight="700" font-family="sans-serif">Emprestimos por mes</text>
  <path d="M35 105 L55 90 L75 95 L95 75 L115 80 L135 65 L145 70" stroke="#0288D1" stroke-width="2" fill="none" stroke-linecap="round" stroke-linejoin="round"/>
  <path d="M35 105 L55 90 L75 95 L95 75 L115 80 L135 65 L145 70 L145 105 Z" fill="#0288D1" fill-opacity="0.06"/>
  <circle cx="55" cy="90" r="3" fill="#0288D1" fill-opacity="0.3"/>
  <circle cx="95" cy="75" r="3" fill="#0288D1" fill-opacity="0.3"/>
  <circle cx="135" cy="65" r="3" fill="#0288D1" fill-opacity="0.3"/>
  <rect x="165" y="48" width="90" height="70" rx="8" fill="#0288D1" fill-opacity="0.03" stroke="#0288D1" stroke-width="1"/>
  <text x="175" y="62" fill="#0288D1" fill-opacity="0.4" font-size="7" font-weight="700" font-family="sans-serif">Mais populares</text>
  <rect x="175" y="70" width="70" height="6" rx="3" fill="#0288D1" fill-opacity="0.15"/>
  <rect x="175" y="80" width="55" height="6" rx="3" fill="#0288D1" fill-opacity="0.1"/>
  <rect x="175" y="90" width="45" height="6" rx="3" fill="#0288D1" fill-opacity="0.08"/>
  <rect x="175" y="100" width="60" height="6" rx="3" fill="#0288D1" fill-opacity="0.12"/>
  <rect x="175" y="110" width="35" height="6" rx="3" fill="#0288D1" fill-opacity="0.06"/>
  <rect x="25" y="128" width="230" height="32" rx="8" fill="#0288D1" fill-opacity="0.03"/>
  <rect x="35" y="135" width="45" height="6" rx="3" fill="#0288D1" fill-opacity="0.1"/>
  <rect x="90" y="135" width="45" height="6" rx="3" fill="#0288D1" fill-opacity="0.1"/>
  <rect x="145" y="135" width="45" height="6" rx="3" fill="#0288D1" fill-opacity="0.1"/>
  <rect x="200" y="133" width="50" height="12" rx="6" fill="#0288D1" fill-opacity="0.08"/>
  <text x="225" y="142" text-anchor="middle" fill="#0288D1" font-size="6" font-weight="700" font-family="sans-serif">PDF</text>
  <rect x="35" y="147" width="180" height="4" rx="2" fill="#0288D1" fill-opacity="0.05"/>
</svg>