<svg xmlns="http://www.w3.org/2000/svg" viewBox="0 0 280 180" fill="none">
  <rect width="280" height="180" rx="16" fill="#E8F5E9"/>
  <rect x="15" y="10" width="250" height="160" rx="12" fill="#fff" stroke="#2E7D32" stroke-width="1.5"/>
  <rect x="15" y="10" width="250" height="28" rx="12" fill="#2E7D32" fill-opacity="0.06"/>
  <rect x="25" y="17" width="60" height="8" rx="3" fill="#2E7D32" fill-opacity="0.2"/>
  <rect x="25" y="48" width="52" height="45" rx="8" fill="#2E7D32" fill-opacity="0.06" stroke="#2E7D32" stroke-width="1"/>
  <text x="51" y="68" text-anchor="middle" fill="#2E7D32" font-size="18" font-weight="900" font-family="sans-serif">264</text>
  <text x="51" y="82" text-anchor="middle" fill="#2E7D32" fill-opacity="0.4" font-size="6" font-weight="700" font-family="sans-serif">Usuarios</text>
  <rect x="85" y="48" width="52" height="45" rx="8" fill="#43A047" fill-opacity="0.06" stroke="#43A047" stroke-width="1"/>
  <text x="111" y="68" text-anchor="middle" fill="#43A047" font-size="18" font-weight="900" font-family="sans-serif">246</text>
  <text x="111" y="82" text-anchor="middle" fill="#43A047" fill-opacity="0.4" font-size="6" font-weight="700" font-family="sans-serif">Estudantes</text>
  <rect x="145" y="48" width="52" height="45" rx="8" fill="#0288D1" fill-opacity="0.06" stroke="#0288D1" stroke-width="1"/>
  <text x="171" y="68" text-anchor="middle" fill="#0288D1" font-size="18" font-weight="900" font-family="sans-serif">13</text>
  <text x="171" y="82" text-anchor="middle" fill="#0288D1" fill-opacity="0.4" font-size="6" font-weight="700" font-family="sans-serif">Professores</text>
  <rect x="205" y="48" width="52" height="45" rx="8" fill="#F9A825" fill-opacity="0.06" stroke="#F9A825" stroke-width="1"/>
  <text x="231" y="68" text-anchor="middle" fill="#F9A825" font-size="18" font-weight="900" font-family="sans-serif">1</text>
  <text x="231" y="82" text-anchor="middle" fill="#F9A825" fill-opacity="0.4" font-size="6" font-weight="700" font-family="sans-serif">Escola</text>
  <rect x="25" y="102" width="230" height="55" rx="8" fill="#2E7D32" fill-opacity="0.03" stroke="#2E7D32" stroke-width="1"/>
  <rect x="35" y="112" width="40" height="35" rx="4" fill="#2E7D32" fill-opacity="0.08"/>
  <rect x="35" y="130" width="40" height="17" rx="2" fill="#2E7D32" fill-opacity="0.15"/>
  <rect x="85" y="120" width="40" height="27" rx="4" fill="#43A047" fill-opacity="0.1"/>
  <rect x="85" y="133" width="40" height="14" rx="2" fill="#43A047" fill-opacity="0.18"/>
  <rect x="135" y="115" width="40" height="32" rx="4" fill="#0288D1" fill-opacity="0.08"/>
  <rect x="135" y="128" width="40" height="19" rx="2" fill="#0288D1" fill-opacity="0.15"/>
  <rect x="185" y="122" width="40" height="25" rx="4" fill="#F9A825" fill-opacity="0.08"/>
  <rect x="185" y="135" width="40" height="12" rx="2" fill="#F9A825" fill-opacity="0.15"/>
  <rect x="220" y="118" width="30" height="29" rx="4" fill="#AB47BC" fill-opacity="0.08"/>
  <rect x="220" y="132" width="30" height="15" rx="2" fill="#AB47BC" fill-opacity="0.12"/>
</svg>