<svg xmlns="http://www.w3.org/2000/svg" viewBox="0 0 280 180" fill="none">
  <rect width="280" height="180" rx="16" fill="#E8F5E9"/>
  <rect x="90" y="15" width="100" height="40" rx="8" fill="#2E7D32" fill-opacity="0.08" stroke="#2E7D32" stroke-width="1.5"/>
  <rect x="100" y="22" width="60" height="7" rx="3" fill="#2E7D32" fill-opacity="0.2"/>
  <rect x="100" y="33" width="80" height="5" rx="2" fill="#2E7D32" fill-opacity="0.1"/>
  <rect x="100" y="42" width="40" height="5" rx="2" fill="#2E7D32" fill-opacity="0.06"/>
  <line x1="140" y1="55" x2="80" y2="80" stroke="#2E7D32" stroke-width="1.5" stroke-dasharray="4 3" opacity="0.3"/>
  <line x1="140" y1="55" x2="200" y2="80" stroke="#2E7D32" stroke-width="1.5" stroke-dasharray="4 3" opacity="0.3"/>
  <rect x="25" y="80" width="110" height="40" rx="8" fill="#fff" stroke="#43A047" stroke-width="1.5"/>
  <rect x="35" y="87" width="50" height="6" rx="3" fill="#43A047" fill-opacity="0.2"/>
  <rect x="35" y="97" width="80" height="4" rx="2" fill="#43A047" fill-opacity="0.1"/>
  <rect x="35" y="105" width="60" height="4" rx="2" fill="#43A047" fill-opacity="0.06"/>
  <rect x="145" y="80" width="110" height="40" rx="8" fill="#fff" stroke="#66BB6A" stroke-width="1.5"/>
  <rect x="155" y="87" width="55" height="6" rx="3" fill="#66BB6A" fill-opacity="0.2"/>
  <rect x="155" y="97" width="75" height="4" rx="2" fill="#66BB6A" fill-opacity="0.1"/>
  <rect x="155" y="105" width="50" height="4" rx="2" fill="#66BB6A" fill-opacity="0.06"/>
  <rect x="80" y="135" width="120" height="30" rx="8" fill="#2E7D32" fill-opacity="0.04" stroke="#2E7D32" stroke-width="1"/>
  <rect x="95" y="142" width="90" height="6" rx="3" fill="#2E7D32" fill-opacity="0.12"/>
  <rect x="95" y="152" width="70" height="4" rx="2" fill="#2E7D32" fill-opacity="0.06"/>
  <circle cx="80" cy="80" r="4" fill="#43A047" fill-opacity="0.3"/>
  <circle cx="200" cy="80" r="4" fill="#66BB6A" fill-opacity="0.3"/>
  <circle cx="140" cy="55" r="6" fill="#2E7D32" fill-opacity="0.2"/>
</svg>