<svg xmlns="http://www.w3.org/2000/svg" viewBox="0 0 280 180" fill="none">
  <rect width="280" height="180" rx="16" fill="#FFF8F0"/>
  <rect x="20" y="20" width="240" height="140" rx="8" fill="#fff" stroke="#E65100" stroke-width="1.5" stroke-dasharray="4 3"/>
  <line x1="20" y1="50" x2="260" y2="50" stroke="#FFCCBC" stroke-width="1"/>
  <line x1="20" y1="80" x2="260" y2="80" stroke="#FFCCBC" stroke-width="1"/>
  <line x1="20" y1="110" x2="260" y2="110" stroke="#FFCCBC" stroke-width="1"/>
  <line x1="100" y1="20" x2="100" y2="160" stroke="#FFCCBC" stroke-width="1"/>
  <line x1="180" y1="20" x2="180" y2="160" stroke="#FFCCBC" stroke-width="1"/>
  <rect x="30" y="28" width="55" height="14" rx="3" fill="#E65100" fill-opacity="0.12"/>
  <rect x="108" y="28" width="60" height="14" rx="3" fill="#E65100" fill-opacity="0.08"/>
  <rect x="188" y="28" width="55" height="14" rx="3" fill="#E65100" fill-opacity="0.08"/>
  <rect x="30" y="58" width="55" height="14" rx="3" fill="#FFAB91" fill-opacity="0.3"/>
  <rect x="108" y="58" width="60" height="14" rx="3" fill="#FFAB91" fill-opacity="0.2"/>
  <rect x="188" y="58" width="55" height="14" rx="3" fill="#FFAB91" fill-opacity="0.2"/>
  <rect x="30" y="88" width="55" height="14" rx="3" fill="#FFCCBC" fill-opacity="0.3"/>
  <rect x="108" y="88" width="60" height="14" rx="3" fill="#FFCCBC" fill-opacity="0.2"/>
  <rect x="188" y="88" width="55" height="14" rx="3" fill="#FFCCBC" fill-opacity="0.2"/>
  <rect x="30" y="118" width="55" height="14" rx="3" fill="#FFAB91" fill-opacity="0.3"/>
  <rect x="108" y="118" width="60" height="14" rx="3" fill="#FFCCBC" fill-opacity="0.2"/>
  <rect x="188" y="118" width="55" height="14" rx="3" fill="#FFAB91" fill-opacity="0.2"/>
  <circle cx="220" cy="45" r="14" fill="#E65100" fill-opacity="0.15"/>
  <path d="M214 45l4 4 8-8" stroke="#E65100" stroke-width="2.5" stroke-linecap="round" stroke-linejoin="round"/>
  <circle cx="220" cy="105" r="14" fill="#C62828" fill-opacity="0.15"/>
  <path d="M214 105h12M220 99v12" stroke="#C62828" stroke-width="2.5" stroke-linecap="round"/>
  <circle cx="60" cy="145" r="10" fill="#E65100" fill-opacity="0.1"/>
  <path d="M56 145h8M60 141v8" stroke="#E65100" stroke-width="1.5" stroke-linecap="round"/>
  <path d="M140 140l6-12 6 12" stroke="#E65100" stroke-width="1.5" stroke-linecap="round" stroke-linejoin="round" fill="none"/>
</svg>