<svg xmlns="http://www.w3.org/2000/svg" viewBox="0 0 280 180" fill="none">
  <rect width="280" height="180" rx="16" fill="#FFF3E0"/>
  <rect x="20" y="15" width="180" height="150" rx="12" fill="#fff" stroke="#C62828" stroke-width="1.5"/>
  <rect x="20" y="15" width="180" height="32" rx="12" fill="#C62828" fill-opacity="0.08"/>
  <circle cx="40" cy="31" r="8" fill="#C62828" fill-opacity="0.2"/>
  <circle cx="40" cy="31" r="4" fill="#C62828" fill-opacity="0.4"/>
  <rect x="55" y="25" width="80" height="6" rx="3" fill="#C62828" fill-opacity="0.15"/>
  <rect x="55" y="34" width="50" height="5" rx="2" fill="#C62828" fill-opacity="0.08"/>
  <rect x="30" y="56" width="100" height="22" rx="10" fill="#DCF8C6"/>
  <rect x="40" y="63" width="70" height="5" rx="2" fill="#4A6A4A" fill-opacity="0.3"/>
  <rect x="40" y="70" width="50" height="4" rx="2" fill="#4A6A4A" fill-opacity="0.2"/>
  <rect x="90" y="88" width="100" height="22" rx="10" fill="#E8F5E9"/>
  <rect x="100" y="95" width="70" height="5" rx="2" fill="#4A6A4A" fill-opacity="0.3"/>
  <rect x="100" y="102" width="60" height="4" rx="2" fill="#4A6A4A" fill-opacity="0.2"/>
  <rect x="30" y="120" width="110" height="22" rx="10" fill="#DCF8C6"/>
  <rect x="40" y="127" width="80" height="5" rx="2" fill="#C62828" fill-opacity="0.4"/>
  <rect x="40" y="134" width="60" height="4" rx="2" fill="#C62828" fill-opacity="0.25"/>
  <rect x="215" y="50" width="50" height="50" rx="10" fill="#C62828" fill-opacity="0.1" stroke="#C62828" stroke-width="1.5" stroke-dasharray="4 3"/>
  <path d="M232 70l8 8M248 70l-8 8" stroke="#C62828" stroke-width="2.5" stroke-linecap="round"/>
  <rect x="215" y="115" width="50" height="40" rx="8" fill="#C62828" fill-opacity="0.08"/>
  <rect x="223" y="123" width="34" height="5" rx="2" fill="#C62828" fill-opacity="0.2"/>
  <rect x="223" y="132" width="24" height="4" rx="2" fill="#C62828" fill-opacity="0.12"/>
  <rect x="223" y="140" width="30" height="4" rx="2" fill="#C62828" fill-opacity="0.12"/>
</svg>