<svg xmlns="http://www.w3.org/2000/svg" viewBox="0 0 280 180" fill="none">
  <rect width="280" height="180" rx="16" fill="#FFF8E1"/>
  <rect x="15" y="10" width="250" height="160" rx="12" fill="#fff" stroke="#F9A825" stroke-width="1.5"/>
  <rect x="15" y="10" width="250" height="28" rx="12" fill="#F9A825" fill-opacity="0.06"/>
  <rect x="25" y="17" width="70" height="8" rx="3" fill="#F9A825" fill-opacity="0.2"/>
  <rect x="25" y="48" width="230" height="24" rx="6" fill="#F9A825" fill-opacity="0.04"/>
  <rect x="35" y="53" width="20" height="14" rx="4" fill="#F9A825" fill-opacity="0.1"/>
  <rect x="65" y="55" width="100" height="5" rx="2" fill="#F9A825" fill-opacity="0.15"/>
  <rect x="65" y="63" width="60" height="4" rx="2" fill="#F9A825" fill-opacity="0.08"/>
  <circle cx="235" cy="60" r="8" fill="#C62828" fill-opacity="0.1"/>
  <text x="235" y="63" text-anchor="middle" fill="#C62828" font-size="10" font-family="sans-serif">♥</text>
  <rect x="25" y="78" width="230" height="24" rx="6" fill="#F9A825" fill-opacity="0.04"/>
  <rect x="35" y="83" width="20" height="14" rx="4" fill="#F9A825" fill-opacity="0.1"/>
  <rect x="65" y="85" width="90" height="5" rx="2" fill="#F9A825" fill-opacity="0.15"/>
  <rect x="65" y="93" width="55" height="4" rx="2" fill="#F9A825" fill-opacity="0.08"/>
  <circle cx="235" cy="90" r="8" fill="#C62828" fill-opacity="0.1"/>
  <text x="235" y="93" text-anchor="middle" fill="#C62828" font-size="10" font-family="sans-serif">♥</text>
  <rect x="25" y="108" width="230" height="24" rx="6" fill="#F9A825" fill-opacity="0.04"/>
  <rect x="35" y="113" width="20" height="14" rx="4" fill="#F9A825" fill-opacity="0.1"/>
  <rect x="65" y="115" width="85" height="5" rx="2" fill="#F9A825" fill-opacity="0.15"/>
  <rect x="65" y="123" width="50" height="4" rx="2" fill="#F9A825" fill-opacity="0.08"/>
  <circle cx="235" cy="120" r="8" fill="#C62828" fill-opacity="0.1"/>
  <text x="235" y="123" text-anchor="middle" fill="#C62828" font-size="10" font-family="sans-serif">♥</text>
  <rect x="25" y="140" width="230" height="24" rx="6" fill="#F9A825" fill-opacity="0.04"/>
  <rect x="35" y="145" width="20" height="14" rx="4" fill="#F9A825" fill-opacity="0.1"/>
  <rect x="65" y="147" width="95" height="5" rx="2" fill="#F9A825" fill-opacity="0.15"/>
  <rect x="65" y="155" width="65" height="4" rx="2" fill="#F9A825" fill-opacity="0.08"/>
  <circle cx="235" cy="152" r="8" fill="#C62828" fill-opacity="0.1"/>
  <text x="235" y="155" text-anchor="middle" fill="#C62828" font-size="10" font-family="sans-serif">♥</text>
</svg>