<svg xmlns="http://www.w3.org/2000/svg" viewBox="0 0 280 180" fill="none">
  <rect width="280" height="180" rx="16" fill="#EDE7F6"/>
  <rect x="100" y="30" width="80" height="100" rx="8" fill="#fff" stroke="#4527A0" stroke-width="1.5" opacity="0.6"/>
  <rect x="110" y="40" width="60" height="8" rx="3" fill="#4527A0" fill-opacity="0.1"/>
  <rect x="110" y="54" width="50" height="6" rx="2" fill="#4527A0" fill-opacity="0.07"/>
  <rect x="110" y="66" width="55" height="6" rx="2" fill="#4527A0" fill-opacity="0.07"/>
  <rect x="110" y="78" width="45" height="6" rx="2" fill="#4527A0" fill-opacity="0.07"/>
  <rect x="110" y="90" width="52" height="6" rx="2" fill="#4527A0" fill-opacity="0.07"/>
  <rect x="110" y="102" width="48" height="6" rx="2" fill="#4527A0" fill-opacity="0.07"/>
  <circle cx="140" cy="155" r="20" fill="#4527A0" fill-opacity="0.12"/>
  <circle cx="140" cy="145" r="12" fill="#4527A0" fill-opacity="0.2"/>
  <circle cx="135" cy="143" r="2" fill="#4527A0" fill-opacity="0.5"/>
  <circle cx="145" cy="143" r="2" fill="#4527A0" fill-opacity="0.5"/>
  <path d="M134 150c2 2 8 2 12 0" stroke="#4527A0" stroke-width="1.5" stroke-linecap="round" fill="none" opacity="0.5"/>
  <path d="M60 60l15-5" stroke="#9E9E9E" stroke-width="1.5" stroke-linecap="round" opacity="0.4"/>
  <path d="M65 80l10 3" stroke="#9E9E9E" stroke-width="1.5" stroke-linecap="round" opacity="0.4"/>
  <path d="M220 55l-12 8" stroke="#9E9E9E" stroke-width="1.5" stroke-linecap="round" opacity="0.4"/>
  <path d="M215 90l-8-2" stroke="#9E9E9E" stroke-width="1.5" stroke-linecap="round" opacity="0.4"/>
  <text x="140" y="25" text-anchor="middle" fill="#4527A0" fill-opacity="0.3" font-size="10" font-weight="700" font-family="sans-serif">Zzz...</text>
</svg>