<svg xmlns="http://www.w3.org/2000/svg" viewBox="0 0 280 180" fill="none">
  <rect width="280" height="180" rx="16" fill="#E8F5E9"/>
  <rect x="15" y="10" width="250" height="160" rx="12" fill="#fff" stroke="#2E7D32" stroke-width="1.5"/>
  <rect x="15" y="10" width="250" height="28" rx="12" fill="#2E7D32" fill-opacity="0.06"/>
  <rect x="25" y="17" width="70" height="8" rx="3" fill="#2E7D32" fill-opacity="0.2"/>
  <circle cx="245" cy="24" r="8" fill="#2E7D32" fill-opacity="0.1"/>
  <rect x="25" y="48" width="100" height="12" rx="4" fill="#2E7D32" fill-opacity="0.08"/>
  <rect x="25" y="66" width="60" height="8" rx="3" fill="#2E7D32" fill-opacity="0.06"/>
  <rect x="25" y="82" width="230" height="1" fill="#2E7D32" fill-opacity="0.08"/>
  <rect x="25" y="92" width="40" height="40" rx="6" fill="#2E7D32" fill-opacity="0.08"/>
  <rect x="25" y="92" width="40" height="12" rx="6" fill="#2E7D32" fill-opacity="0.15"/>
  <rect x="75" y="94" width="80" height="7" rx="3" fill="#2E7D32" fill-opacity="0.15"/>
  <rect x="75" y="105" width="60" height="5" rx="2" fill="#2E7D32" fill-opacity="0.08"/>
  <rect x="75" y="115" width="45" height="5" rx="2" fill="#43A047" fill-opacity="0.12"/>
  <rect x="25" y="140" width="40" height="22" rx="5" fill="#2E7D32" fill-opacity="0.08"/>
  <rect x="25" y="140" width="40" height="8" rx="5" fill="#2E7D32" fill-opacity="0.15"/>
  <rect x="75" y="142" width="70" height="6" rx="3" fill="#2E7D32" fill-opacity="0.12"/>
  <rect x="75" y="152" width="50" height="5" rx="2" fill="#2E7D32" fill-opacity="0.06"/>
  <rect x="175" y="92" width="90" height="70" rx="8" fill="#2E7D32" fill-opacity="0.04" stroke="#2E7D32" stroke-width="1" stroke-dasharray="3 3"/>
  <text x="220" y="125" text-anchor="middle" fill="#2E7D32" fill-opacity="0.3" font-size="18" font-family="sans-serif">+</text>
  <text x="220" y="148" text-anchor="middle" fill="#2E7D32" fill-opacity="0.25" font-size="7" font-family="sans-serif">IA</text>
</svg>