<svg xmlns="http://www.w3.org/2000/svg" viewBox="0 0 280 180" fill="none">
  <rect width="280" height="180" rx="16" fill="#E8F5E9"/>
  <rect x="15" y="10" width="250" height="160" rx="12" fill="#fff" stroke="#2E7D32" stroke-width="1.5"/>
  <rect x="15" y="10" width="250" height="28" rx="12" fill="#2E7D32" fill-opacity="0.06"/>
  <rect x="25" y="17" width="70" height="8" rx="3" fill="#2E7D32" fill-opacity="0.2"/>
  <rect x="25" y="48" width="100" height="14" rx="6" fill="#2E7D32" fill-opacity="0.08"/>
  <rect x="135" y="48" width="60" height="14" rx="6" fill="#2E7D32" fill-opacity="0.04"/>
  <rect x="205" y="48" width="60" height="14" rx="6" fill="#2E7D32" fill-opacity="0.04"/>
  <rect x="25" y="72" width="230" height="30" rx="8" fill="#2E7D32" fill-opacity="0.04"/>
  <rect x="35" y="78" width="20" height="18" rx="4" fill="#C62828" fill-opacity="0.12"/>
  <text x="45" y="90" text-anchor="middle" fill="#C62828" fill-opacity="0.4" font-size="7" font-weight="700" font-family="sans-serif">PDF</text>
  <rect x="65" y="80" width="80" height="6" rx="3" fill="#2E7D32" fill-opacity="0.12"/>
  <rect x="65" y="90" width="50" height="4" rx="2" fill="#2E7D32" fill-opacity="0.06"/>
  <rect x="215" y="82" width="35" height="12" rx="6" fill="#2E7D32" fill-opacity="0.1"/>
  <text x="233" y="91" text-anchor="middle" fill="#2E7D32" font-size="6" font-weight="700" font-family="sans-serif">Baixar</text>
  <rect x="25" y="110" width="230" height="30" rx="8" fill="#2E7D32" fill-opacity="0.04"/>
  <rect x="35" y="116" width="20" height="18" rx="4" fill="#2B5797" fill-opacity="0.12"/>
  <text x="45" y="128" text-anchor="middle" fill="#2B5797" fill-opacity="0.4" font-size="6" font-weight="700" font-family="sans-serif">DOC</text>
  <rect x="65" y="118" width="90" height="6" rx="3" fill="#2E7D32" fill-opacity="0.12"/>
  <rect x="65" y="128" width="60" height="4" rx="2" fill="#2E7D32" fill-opacity="0.06"/>
  <rect x="215" y="120" width="35" height="12" rx="6" fill="#2E7D32" fill-opacity="0.1"/>
  <text x="233" y="129" text-anchor="middle" fill="#2E7D32" font-size="6" font-weight="700" font-family="sans-serif">Baixar</text>
  <rect x="25" y="148" width="230" height="16" rx="6" fill="#2E7D32" fill-opacity="0.03"/>
  <rect x="35" y="152" width="50" height="5" rx="2" fill="#2E7D32" fill-opacity="0.08"/>
</svg>