<svg xmlns="http://www.w3.org/2000/svg" viewBox="0 0 280 180" fill="none">
  <rect width="280" height="180" rx="16" fill="#E3F2FD"/>
  <rect x="15" y="10" width="250" height="160" rx="12" fill="#fff" stroke="#0288D1" stroke-width="1.5"/>
  <rect x="15" y="10" width="250" height="28" rx="12" fill="#0288D1" fill-opacity="0.06"/>
  <rect x="25" y="17" width="60" height="8" rx="3" fill="#0288D1" fill-opacity="0.2"/>
  <circle cx="245" cy="24" r="8" fill="#0288D1" fill-opacity="0.1"/>
  <rect x="25" y="50" width="120" height="20" rx="10" fill="#E3F2FD"/>
  <rect x="35" y="57" width="90" height="5" rx="2" fill="#0288D1" fill-opacity="0.25"/>
  <rect x="135" y="78" width="120" height="20" rx="10" fill="#0288D1" fill-opacity="0.08"/>
  <rect x="145" y="85" width="90" height="5" rx="2" fill="#0288D1" fill-opacity="0.2"/>
  <rect x="25" y="106" width="140" height="20" rx="10" fill="#E3F2FD"/>
  <rect x="35" y="113" width="110" height="5" rx="2" fill="#0288D1" fill-opacity="0.25"/>
  <rect x="115" y="134" width="140" height="20" rx="10" fill="#0288D1" fill-opacity="0.08"/>
  <rect x="125" y="141" width="110" height="5" rx="2" fill="#0288D1" fill-opacity="0.2"/>
  <circle cx="45" cy="48" r="6" fill="#0288D1" fill-opacity="0.15"/>
  <circle cx="250" cy="76" r="6" fill="#0288D1" fill-opacity="0.25"/>
  <rect x="200" y="50" width="55" height="18" rx="9" fill="#43A047" fill-opacity="0.15"/>
  <text x="228" y="62" text-anchor="middle" fill="#43A047" font-size="7" font-weight="700" font-family="sans-serif">Aprovar</text>
</svg>