<svg xmlns="http://www.w3.org/2000/svg" viewBox="0 0 280 180" fill="none">
  <rect width="280" height="180" rx="16" fill="#E3F2FD"/>
  <rect x="15" y="10" width="250" height="160" rx="12" fill="#fff" stroke="#0288D1" stroke-width="1.5"/>
  <rect x="15" y="10" width="250" height="28" rx="12" fill="#0288D1" fill-opacity="0.06"/>
  <rect x="25" y="17" width="80" height="8" rx="3" fill="#0288D1" fill-opacity="0.2"/>
  <rect x="25" y="48" width="110" height="65" rx="8" fill="#0288D1" fill-opacity="0.04" stroke="#0288D1" stroke-width="1"/>
  <rect x="35" y="100" width="12" height="5" rx="2" fill="#0288D1" fill-opacity="0.2"/>
  <rect x="35" y="85" width="12" height="20" rx="2" fill="#0288D1" fill-opacity="0.25"/>
  <rect x="55" y="75" width="12" height="30" rx="2" fill="#0288D1" fill-opacity="0.35"/>
  <rect x="75" y="80" width="12" height="25" rx="2" fill="#0288D1" fill-opacity="0.2"/>
  <rect x="95" y="65" width="12" height="40" rx="2" fill="#0288D1" fill-opacity="0.4"/>
  <rect x="115" y="70" width="12" height="35" rx="2" fill="#0288D1" fill-opacity="0.3"/>
  <rect x="25" y="120" width="50" height="5" rx="2" fill="#0288D1" fill-opacity="0.1"/>
  <rect x="145" y="48" width="110" height="65" rx="8" fill="#0288D1" fill-opacity="0.04" stroke="#0288D1" stroke-width="1"/>
  <circle cx="200" cy="78" r="22" fill="none" stroke="#0288D1" stroke-width="6" stroke-opacity="0.15"/>
  <path d="M200 56a22 22 0 0 1 22 22" stroke="#0288D1" stroke-width="6" stroke-linecap="round" fill="none"/>
  <path d="M200 78l10-8" stroke="#0288D1" stroke-width="2" stroke-linecap="round"/>
  <rect x="155" y="108" width="90" height="5" rx="2" fill="#0288D1" fill-opacity="0.1"/>
  <rect x="170" y="118" width="60" height="5" rx="2" fill="#0288D1" fill-opacity="0.07"/>
  <rect x="25" y="130" width="230" height="30" rx="8" fill="#0288D1" fill-opacity="0.04"/>
  <rect x="35" y="137" width="60" height="5" rx="2" fill="#0288D1" fill-opacity="0.12"/>
  <rect x="35" y="147" width="40" height="4" rx="2" fill="#0288D1" fill-opacity="0.06"/>
  <rect x="205" y="135" width="45" height="16" rx="8" fill="#0288D1" fill-opacity="0.1"/>
  <text x="228" y="146" text-anchor="middle" fill="#0288D1" font-size="6" font-weight="700" font-family="sans-serif">Exportar</text>
</svg>